<svg width="43" height="36" viewBox="0 0 43 36" fill="none" xmlns="http://www.w3.org/2000/svg">
<g id="eye.svg" clip-path="url(#clip0_1_2039)">
<path id="Vector" fill-rule="evenodd" clip-rule="evenodd" d="M37.3399 0.46525C37.1892 0.54014 35.8081 1.88295 34.2707 3.44934L31.4754 6.29715L30.5714 5.87582C26.0608 3.77362 21.1172 3.28652 16.3777 4.47736C10.1837 6.03362 4.75105 10.3706 0.821475 16.8958C0.35857 17.6645 0.366425 18.017 0.865501 18.8748C2.78763 22.1785 5.77505 25.4807 8.8422 27.6918C9.14362 27.9092 9.40832 28.1019 9.43043 28.1201C9.45244 28.1385 8.25371 29.3737 6.76644 30.8651C3.83364 33.806 3.80432 33.846 4.04445 34.5727C4.23161 35.139 4.76174 35.4293 5.39481 35.3123C5.69047 35.2576 6.13337 34.8544 8.67012 32.3302L11.6036 29.4113L12.1584 29.691C13.7173 30.4769 15.9768 31.208 17.8223 31.5237C25.0539 32.7606 32.0375 30.357 37.588 24.7206C39.2914 22.991 40.4841 21.466 41.9022 19.2045C42.7928 17.7845 42.773 17.6916 41.0296 15.0935C39.3894 12.6494 36.7091 9.87005 34.2833 8.09833C33.9048 7.82176 33.5767 7.58049 33.5542 7.56207C33.5317 7.54364 34.711 6.32908 36.1748 4.86321C37.6386 3.39726 38.8798 2.08226 38.933 1.94106C39.0766 1.55977 39.0504 1.22956 38.8507 0.902456C38.5274 0.372938 37.8942 0.189682 37.3399 0.46525ZM23.3001 6.26121C25.4394 6.49145 27.8801 7.14739 29.2953 7.87239L29.6204 8.03904L27.9874 9.668L26.3543 11.297L25.9558 11.0243C24.6817 10.1526 23.1938 9.72219 21.4639 9.72483C20.2887 9.72666 19.5576 9.86047 18.5029 10.2667C16.2168 11.1471 14.4809 13.0168 13.6719 15.47C13.4313 16.1999 13.4163 16.3388 13.4163 17.8417C13.4163 19.3503 13.4304 19.4806 13.6746 20.2133C13.955 21.0547 14.3024 21.7876 14.6867 22.3492L14.9312 22.7063L13.0557 24.5793L11.1801 26.4524L10.6526 26.0922C8.88504 24.8853 6.47799 22.6444 5.11805 20.9401C4.27243 19.8803 3.04219 18.0449 3.04219 17.8431C3.04219 17.7621 3.37046 17.2106 3.77181 16.6175C7.76021 10.7229 13.3022 7.02671 19.2265 6.31029C20.5076 6.1554 22.1342 6.13579 23.3001 6.26121ZM32.611 9.7917C34.4713 11.1179 36.4556 12.9886 37.8634 14.7432C38.7101 15.7987 39.9431 17.6363 39.9431 17.843C39.9431 17.9257 39.6094 18.4825 39.2017 19.0805C33.6852 27.1702 25.6568 30.8498 17.4281 29.0597C16.3389 28.8227 14.9085 28.3566 14.0094 27.9456L13.3575 27.6475L14.9901 26.021L16.6226 24.3945L17.1949 24.7639C19.1466 26.0237 21.9242 26.3218 24.2372 25.5197C25.7514 24.9947 27.2348 23.8701 28.1357 22.5642C28.7198 21.7176 28.9891 21.1788 29.3108 20.2133C29.5548 19.4807 29.569 19.3501 29.569 17.8417C29.569 16.333 29.5548 16.2027 29.3107 15.47C29.0304 14.6288 28.6829 13.8957 28.2988 13.3344L28.0545 12.9777L29.9105 11.1224C30.9314 10.102 31.7911 9.2672 31.821 9.2672C31.8508 9.2672 32.2064 9.50327 32.611 9.7917ZM22.68 12.1329C23.2666 12.2574 24.1586 12.6073 24.5026 12.848C24.6678 12.9635 24.4041 13.2472 20.6297 17.016L16.5795 21.0599L16.2467 20.3688C15.4369 18.6872 15.4548 16.9095 16.2989 15.1994C17.439 12.8897 20.1369 11.5933 22.68 12.1329ZM26.85 15.5379C27.543 17.1006 27.4874 18.8253 26.6912 20.4682C25.9473 22.0028 24.4071 23.1844 22.6678 23.5545C21.4114 23.822 19.883 23.5953 18.7245 22.9698L18.2855 22.7328L22.3272 18.6957C26.8679 14.1601 26.3878 14.4954 26.85 15.5379Z" fill="#E7E1E0"/>
</g>
<defs>
<clipPath id="clip0_1_2039">
<rect width="42" height="35" fill="white" transform="translate(0.482483 0.337891)"/>
</clipPath>
</defs>
</svg>
