<svg width="27" height="18" viewBox="0 0 27 18" fill="none" xmlns="http://www.w3.org/2000/svg">
<g id="Frame">
<path id="Vector" fill-rule="evenodd" clip-rule="evenodd" d="M25.9942 9.13765C19.9601 -1.54393 6.78104 -1.54393 0.716888 9.13765C6.78104 19.8192 19.9601 19.8192 25.9942 9.13765ZM13.3556 6.63171C12.0047 6.63171 10.9239 7.79071 10.9239 9.16898C10.9239 10.5786 12.0047 11.7062 13.3556 11.7062C14.7065 11.7062 15.7872 10.5786 15.7872 9.16898C15.7872 7.79071 14.7065 6.63171 13.3556 6.63171ZM10.0833 3.46796C8.25205 4.62696 7.02121 6.72568 7.02121 9.10633C7.02121 11.5809 8.31209 13.7109 10.2034 14.8386C7.47152 14.0243 4.97981 12.1134 3.2086 9.13765C4.94979 6.19317 7.41148 4.31371 10.0833 3.46796ZM16.5077 14.8386C18.399 13.7109 19.6899 11.5809 19.6899 9.10633C19.6899 6.72568 18.4591 4.62696 16.6278 3.46796C19.2997 4.31371 21.7613 6.19317 23.5025 9.13765C21.7613 12.1134 19.2396 14.0243 16.5077 14.8386Z" fill="white"/>
</g>
</svg>
