<svg width="13" height="13" viewBox="0 0 13 13" fill="none" xmlns="http://www.w3.org/2000/svg">
<g id="Frame">
<path id="Vector" d="M9.06249 3.32811C9.36249 3.23811 9.36249 3.23811 10.9825 4.97811C12.4225 6.53811 12.4525 6.56811 12.4825 6.68811V6.98811C12.4225 7.10811 12.4225 7.13811 10.9825 8.69811L10.8625 8.81811C9.69249 10.0781 9.39249 10.3781 9.18249 10.3781L8.94249 10.3181C8.64249 10.1681 8.49249 9.80811 8.61249 9.47811C8.61249 9.41811 8.64249 9.35811 9.81249 8.09811L10.4125 7.49811H5.82249C0.84249 7.49811 0.84249 7.49811 0.72249 7.34811C0.63249 7.28811 0.54249 7.16811 0.51249 7.07811C0.42249 6.89811 0.45249 6.77811 0.51249 6.62811C0.51249 6.53811 0.60249 6.41811 0.72249 6.32811L0.87249 6.17811H10.3825L9.81249 5.57811C8.61249 4.25811 8.61249 4.22811 8.58249 4.10811C8.49249 3.77811 8.67249 3.44811 9.00249 3.32811" fill="#546272"/>
</g>
</svg>
