<svg width="13" height="13" viewBox="0 0 13 13" fill="none" xmlns="http://www.w3.org/2000/svg">
<g id="Frame">
<path id="Vector" d="M3.90248 3.32811C3.60248 3.23811 3.60248 3.23811 1.98248 4.97811C0.542475 6.53811 0.512475 6.56811 0.482474 6.68811V6.98811C0.542475 7.10811 0.542475 7.13811 1.98248 8.69811L2.10248 8.81811C3.27248 10.0781 3.57248 10.3781 3.78248 10.3781L4.02248 10.3181C4.32248 10.1681 4.47248 9.80811 4.35248 9.47811C4.35248 9.41811 4.32248 9.35811 3.15248 8.09811L2.55247 7.49811H7.14248C12.1225 7.49811 12.1225 7.49811 12.2425 7.34811C12.3325 7.28811 12.4225 7.16811 12.4525 7.07811C12.5425 6.89811 12.5125 6.77811 12.4525 6.62811C12.4525 6.53811 12.3625 6.41811 12.2425 6.32811L12.0925 6.17811H2.58247L3.15248 5.57811C4.35248 4.25811 4.35248 4.22811 4.38248 4.10811C4.47248 3.77811 4.29248 3.44811 3.96248 3.32811" fill="#546272"/>
</g>
</svg>
