<svg width="21" height="21" viewBox="0 0 21 21" fill="none" xmlns="http://www.w3.org/2000/svg">
<g id="Frame">
<path id="Vector" d="M19.3158 14.6878V17.1878C19.3168 17.4199 19.2692 17.6496 19.1762 17.8623C19.0833 18.0749 18.9469 18.2658 18.7759 18.4227C18.6049 18.5796 18.403 18.699 18.1831 18.7734C17.9633 18.8477 17.7303 18.8754 17.4992 18.8545C14.9348 18.5758 12.4717 17.6996 10.3075 16.2961C8.29399 15.0167 6.58691 13.3096 5.30747 11.2961C3.89911 9.12215 3.02267 6.64697 2.74913 4.07114C2.72831 3.8407 2.75569 3.60844 2.82955 3.38916C2.9034 3.16988 3.02211 2.96838 3.1781 2.79749C3.3341 2.6266 3.52397 2.49007 3.73562 2.39658C3.94728 2.30309 4.17608 2.25469 4.40747 2.25448H6.90747C7.31189 2.2505 7.70396 2.39371 8.0106 2.65742C8.31724 2.92113 8.51753 3.28735 8.57413 3.68781C8.67965 4.48787 8.87534 5.27342 9.15747 6.02948C9.26958 6.32775 9.29385 6.65191 9.22739 6.96354C9.16092 7.27518 9.00652 7.56124 8.78246 7.78781L7.72413 8.84614C8.91043 10.9324 10.6378 12.6598 12.7242 13.8461L13.7825 12.7878C14.0091 12.5637 14.2951 12.4093 14.6068 12.3429C14.9184 12.2764 15.2425 12.3007 15.5408 12.4128C16.2969 12.6949 17.0824 12.8906 17.8825 12.9961C18.2873 13.0532 18.657 13.2571 18.9213 13.569C19.1855 13.881 19.326 14.2791 19.3158 14.6878Z" stroke="#D9D9D9" stroke-width="1.6" stroke-linecap="round" stroke-linejoin="round"/>
</g>
</svg>
