<svg width="43" height="36" viewBox="0 0 43 36" fill="none" xmlns="http://www.w3.org/2000/svg">
<g id="about-icon--1.svg" clip-path="url(#clip0_1_2023)">
<path id="Vector" d="M29.7325 6.17139H12.2325C10.6217 6.17139 9.31583 7.47723 9.31583 9.08806V26.588C9.31583 28.1989 10.6217 29.5047 12.2325 29.5047H29.7325C31.3433 29.5047 32.6492 28.1989 32.6492 26.588V9.08806C32.6492 7.47723 31.3433 6.17139 29.7325 6.17139Z" stroke="#E7E1E0" stroke-width="1.6" stroke-linecap="round" stroke-linejoin="round"/>
<path id="Vector_2" d="M25.3575 13.4629H16.6075V22.2129H25.3575V13.4629Z" stroke="#E7E1E0" stroke-width="1.6" stroke-linecap="round" stroke-linejoin="round"/>
<path id="Vector_3" d="M16.6075 1.79639V6.17139" stroke="#E7E1E0" stroke-width="1.6" stroke-linecap="round" stroke-linejoin="round"/>
<path id="Vector_4" d="M25.3575 1.79639V6.17139" stroke="#E7E1E0" stroke-width="1.6" stroke-linecap="round" stroke-linejoin="round"/>
<path id="Vector_5" d="M16.6075 29.5044V33.8794" stroke="#E7E1E0" stroke-width="1.6" stroke-linecap="round" stroke-linejoin="round"/>
<path id="Vector_6" d="M25.3575 29.5044V33.8794" stroke="#E7E1E0" stroke-width="1.6" stroke-linecap="round" stroke-linejoin="round"/>
<path id="Vector_7" d="M32.6492 13.4629H37.0242" stroke="#E7E1E0" stroke-width="1.6" stroke-linecap="round" stroke-linejoin="round"/>
<path id="Vector_8" d="M32.6492 20.7544H37.0242" stroke="#E7E1E0" stroke-width="1.6" stroke-linecap="round" stroke-linejoin="round"/>
<path id="Vector_9" d="M4.94083 13.4629H9.31583" stroke="#E7E1E0" stroke-width="1.6" stroke-linecap="round" stroke-linejoin="round"/>
<path id="Vector_10" d="M4.94083 20.7544H9.31583" stroke="#E7E1E0" stroke-width="1.6" stroke-linecap="round" stroke-linejoin="round"/>
</g>
<defs>
<clipPath id="clip0_1_2023">
<rect width="42" height="35" fill="white" transform="translate(0.482483 0.337891)"/>
</clipPath>
</defs>
</svg>
