<svg width="21" height="12" viewBox="0 0 21 12" fill="none" xmlns="http://www.w3.org/2000/svg">
<g id="vk.svg" clip-path="url(#clip0_1_2143)">
<path id="Vector" d="M20.3992 10.5044L20.3158 10.4211C19.7325 9.58773 19.0658 8.75439 18.3158 8.08773L17.4825 7.17106C17.3825 7.05989 17.3143 6.92386 17.2849 6.77724C17.2556 6.63062 17.2663 6.47881 17.3158 6.33773L18.1492 4.92106L18.8992 4.00439C20.0658 2.33773 20.5658 1.33773 20.4825 0.837728L20.3992 0.754394C20.3093 0.663885 20.1922 0.605341 20.0658 0.587728C19.8459 0.54283 19.6191 0.54283 19.3992 0.587728H16.0658L15.9825 0.671061L15.8158 0.754394V1.00439C15.1803 2.50278 14.3389 3.90519 13.3158 5.17106C13.3158 5.33773 13.1491 5.50439 12.9825 5.58773L12.7325 5.67106H12.5658C12.4615 5.61175 12.3751 5.52538 12.3158 5.42106L12.1491 5.00439C12.112 4.6721 12.112 4.33669 12.1491 4.00439C12.1641 3.58786 12.1641 3.17093 12.1491 2.75439C12.1441 2.03218 12.1441 1.30994 12.1491 0.587728L11.8991 0.337728L11.4825 0.171061L10.0658 0.00439453C9.23248 0.00439453 8.39915 0.00439453 7.56582 0.254395L7.23248 0.587728C7.06582 0.754395 7.06582 0.837728 7.23248 0.837728C7.39773 0.861212 7.55661 0.917553 7.69973 1.00343C7.84285 1.0893 7.96733 1.20297 8.06582 1.33773V1.42106L8.23248 1.92106L8.31582 2.75439C8.4026 3.64649 8.34634 4.54672 8.14915 5.42106L7.98248 5.58773V5.67106C7.87251 5.69351 7.75913 5.69351 7.64915 5.67106L7.31582 5.58773C7.16099 5.46575 7.02113 5.32589 6.89915 5.17106L6.31582 4.42106C6.06582 4.17106 5.89915 3.75439 5.73248 3.33773L5.56582 3.00439C5.1738 2.29804 4.81236 1.57515 4.48248 0.837728L4.14915 0.504395H1.14915C1.04567 0.490015 0.940331 0.497413 0.839879 0.526113C0.739426 0.554814 0.646078 0.604185 0.565816 0.671061L0.482483 0.921061V1.17106C1.72655 4.06866 3.35203 6.78714 5.31582 9.25439L5.56582 9.50439L6.31582 10.0877L7.39915 10.7544C8.28087 11.2845 9.28712 11.572 10.3158 11.5877H11.4825L12.0658 11.2544V11.0044L12.1491 10.7544L12.2325 9.92106L12.3991 9.42106C12.4946 9.22253 12.6378 9.05075 12.8158 8.92106H12.8991C12.9963 8.88932 13.0994 8.88033 13.2005 8.89478C13.3017 8.90923 13.3981 8.94673 13.4825 9.00439L14.1491 9.67106C14.5935 10.1967 15.0664 10.6974 15.5658 11.1711L15.8158 11.2544L16.3158 11.5044H19.6492L20.2325 11.4211L20.5658 11.0877V10.8377L20.4825 10.5044H20.3992Z" fill="#9A888A"/>
</g>
<defs>
<clipPath id="clip0_1_2143">
<rect width="20" height="11.6667" fill="white" transform="translate(0.482483 0.00439453)"/>
</clipPath>
</defs>
</svg>
