<svg width="163" height="41" viewBox="0 0 163 41" fill="none" xmlns="http://www.w3.org/2000/svg">
<g id="logo.svg" clip-path="url(#clip0_1_2286)">
<path id="Vector" d="M31.695 0.41626V6.73309L25.5005 0.41626H31.695Z" fill="#9A888A"/>
<path id="Vector_2" d="M0.482483 23.9267H7.47657V16.8389H0.482483V23.9267Z" fill="#9A888A"/>
<path id="Vector_3" d="M32.8333 23.9267H39.8271V16.8389H32.8333V23.9267Z" fill="#9A888A"/>
<path id="Vector_4" d="M8.61458 40.4162V34.0994L14.8091 40.4162H8.61458Z" fill="#9A888A"/>
<path id="Vector_5" d="M15.5788 39.5663V33.2498H9.38429L15.5788 39.5663Z" fill="#9A888A"/>
<path id="Vector_6" d="M24.7308 1.26636V7.58292H30.9253L24.7308 1.26636Z" fill="#9A888A"/>
<path id="Vector_7" d="M25.5005 40.4162L31.695 34.0994V40.4162H25.5005Z" fill="#9A888A"/>
<path id="Vector_8" d="M24.7308 39.5663L30.9253 33.2498H24.7308V39.5663Z" fill="#9A888A"/>
<path id="Vector_9" d="M14.8091 0.41626L8.61458 6.73309V0.41626H14.8091Z" fill="#9A888A"/>
<path id="Vector_10" d="M15.5788 1.26636L9.38429 7.58292H15.5788V1.26636Z" fill="#9A888A"/>
<path id="Vector_11" d="M0.511871 32.1742V25.8574L6.70634 32.1742H0.511871Z" fill="#9A888A"/>
<path id="Vector_12" d="M7.47605 31.3244V25.0078H1.28159L7.47605 31.3244Z" fill="#9A888A"/>
<path id="Vector_13" d="M39.7977 8.6582V14.9747L33.6032 8.6582H39.7977Z" fill="#9A888A"/>
<path id="Vector_14" d="M32.8335 9.50781V15.8246H39.028L32.8335 9.50781Z" fill="#9A888A"/>
<path id="Vector_15" d="M33.6032 32.1742L39.7977 25.8574V32.1742H33.6032Z" fill="#9A888A"/>
<path id="Vector_16" d="M32.8335 31.3244L39.028 25.0078H32.8335V31.3244Z" fill="#9A888A"/>
<path id="Vector_17" d="M6.70634 8.6582L0.511871 14.9747V8.6582H6.70634Z" fill="#9A888A"/>
<path id="Vector_18" d="M7.47605 9.50781L1.28159 15.8246H7.47605V9.50781Z" fill="#9A888A"/>
<path id="Vector_19" d="M9.35173 32.1742L15.5462 25.8574V32.1742H9.35173Z" fill="#9A888A"/>
<path id="Vector_20" d="M24.7634 14.9747L30.9578 8.6582H24.7634V14.9747Z" fill="#9A888A"/>
<path id="Vector_21" d="M24.7634 32.1742V25.8574L30.9578 32.1742H24.7634Z" fill="#9A888A"/>
<path id="Vector_22" d="M15.5462 14.9747V8.6582H9.35173L15.5462 14.9747Z" fill="#9A888A"/>
<path id="Vector_23" d="M14.8091 25.0078L8.61458 31.3244V25.0078H14.8091Z" fill="#9A888A"/>
<path id="Vector_24" d="M31.695 9.50781L25.5005 15.8246H31.695V9.50781Z" fill="#9A888A"/>
<path id="Vector_25" d="M31.695 25.0078V31.3244L25.5005 25.0078H31.695Z" fill="#9A888A"/>
<path id="Vector_26" d="M8.61458 9.50781V15.8246H14.8091L8.61458 9.50781Z" fill="#9A888A"/>
<path id="Vector_27" d="M23.6071 33.2515V40.4164H16.5847V33.2515H23.6071Z" fill="#9A888A"/>
<path id="Vector_28" d="M16.7022 0.41626V7.58119H23.7249V0.41626H16.7022Z" fill="#9A888A"/>
<path id="Vector_29" d="M7.49114 39.573L1.10974 33.2498H7.49114V39.573Z" fill="#9A888A"/>
<path id="Vector_30" d="M39.1996 7.58276L32.8184 1.25952V7.58276H39.1996Z" fill="#9A888A"/>
<path id="Vector_31" d="M32.8184 33.2498H39.1996L32.8184 39.573V33.2498Z" fill="#9A888A"/>
<path id="Vector_32" d="M1.10974 7.58276H7.49114V1.25952L1.10974 7.58276Z" fill="#9A888A"/>
<path id="Vector_33" d="M58.3289 16.453C58.8095 17.4389 59.2485 17.9643 60.2565 17.9643H61.6122V17.5089C60.8263 17.4226 60.3762 17.2273 59.8133 16.1586C59.5738 15.7227 59.3535 15.307 59.1556 14.9335C58.9132 14.4761 58.7044 14.082 58.5349 13.7917C58.0056 12.8559 57.4078 12.4937 56.6518 12.2624V12.214L56.6848 12.1937C56.9642 12.0213 57.6083 11.6241 58.1973 10.4124C58.9729 8.79896 59.3104 8.1747 60.0206 8.1747H60.3762C60.7122 8.1747 61.0355 7.97543 61.0355 7.69603C61.0355 7.33568 60.731 7.03784 60.1667 7.03784C59.4545 7.05761 58.8429 7.50022 58.2622 8.76824L58.1919 8.93279C57.6415 10.2206 57.3413 10.9229 56.8472 11.3913C56.3317 11.8844 55.8935 12.0332 54.7825 12.053V9.22368C54.7825 7.92708 54.9286 7.84295 56.1522 7.74625V7.2852H52.0585V7.74625C53.2878 7.84295 53.4144 7.94338 53.4144 9.22368V15.9096C53.4144 17.3077 53.2878 17.4047 52.0585 17.5089V17.9643H56.1522V17.5089C54.9286 17.4047 54.7825 17.3077 54.7825 15.9096V12.5907C55.8797 12.5781 56.5078 12.7234 57.1671 14.1058C57.5647 14.8565 57.9589 15.6802 58.2088 16.2025L58.3289 16.453Z" fill="#9A888A"/>
<path id="Vector_34" d="M69.3371 11.2319C68.275 11.3267 68.2242 11.46 68.2242 12.3794V16.2863C68.2242 17.3083 68.2888 17.4394 69.3371 17.5393V17.9643H65.873V17.5393C66.8857 17.4394 66.9546 17.3246 66.9546 16.3079V12.1013C66.9546 11.5062 66.9032 11.3756 66.3863 11.3756H65.5335C65.018 11.3756 64.9534 11.5062 64.9359 12.0332C64.874 15.3201 64.0476 16.9479 63.5697 17.6542C63.311 18.0453 63.0369 18.1956 62.8434 18.1956C62.5354 18.1956 62.2961 18.1152 62.1327 18.0452V17.7509C62.6834 17.2941 63.2143 16.5032 63.5167 15.779C63.8911 14.9093 64.2112 13.6616 64.2112 12.1999C64.2112 11.5388 64.1654 11.3416 62.9874 11.2319V10.8018H69.3371V11.2319Z" fill="#9A888A"/>
<path id="Vector_35" d="M77.0715 12.1999C77.0715 11.4092 77.1509 11.2928 78.1811 11.1961V10.8013H75.7002V10.9161C75.7002 11.0005 75.6684 11.1132 75.5736 11.2799L72.593 16.8494H72.5575C72.6248 15.5816 72.6248 14.7803 72.6248 14.2206V12.3468C72.6248 11.3913 72.6722 11.2928 73.6553 11.1961V10.8013H70.3337V11.1961C71.3324 11.2928 71.3991 11.4092 71.3991 12.3631V16.3074C71.3991 17.2941 71.3324 17.4389 70.3337 17.5393V17.9643H72.8128V17.8479C72.8128 17.6862 72.8636 17.5196 72.9637 17.3422L75.8757 11.8537H75.9077C75.8442 13.0714 75.8442 13.6772 75.8442 14.1057V16.4385C75.8442 17.3246 75.7491 17.4389 74.8929 17.5393V17.9643H78.1655V17.5393C77.1334 17.4389 77.0715 17.3422 77.0715 16.4209V12.1999Z" fill="#9A888A"/>
<path id="Vector_36" d="M83.7775 17.9643V17.5393C84.6443 17.4389 84.7256 17.3259 84.7256 16.2863V14.4498H81.6023V16.2863C81.6023 17.3601 81.6802 17.4389 82.5171 17.5393V17.9643H79.2635V17.5393C80.2647 17.4389 80.3279 17.3417 80.3279 16.2863V12.3326C80.3279 11.4092 80.28 11.2927 79.2323 11.2139V10.8013H82.5031V11.2139C81.6802 11.2927 81.6023 11.4252 81.6023 12.3326V13.8242H84.7256V12.3147C84.7256 11.4252 84.6811 11.2927 83.7441 11.2139V10.8013H86.9815V11.2139C86.0829 11.2927 86.0003 11.3913 86.0003 12.3326V16.2863C86.0003 17.3417 86.0829 17.4389 87.031 17.5393V17.9643H83.7775Z" fill="#9A888A"/>
<path id="Vector_37" d="M94.8645 12.1999C94.8645 11.4092 94.9437 11.2928 95.9755 11.1961V10.8013H93.4948V10.9161C93.4948 11.0005 93.4614 11.1132 93.3661 11.2799L90.3823 16.8494H90.354C90.416 15.5818 90.416 14.7805 90.416 14.2209V12.3468C90.416 11.3913 90.4647 11.2928 91.4441 11.1961V10.8013H88.1296V11.1961C89.1249 11.2928 89.1916 11.4092 89.1916 12.3631V16.3074C89.1916 17.2941 89.1249 17.4389 88.1296 17.5393V17.9643H90.6058V17.8479C90.6058 17.6862 90.6617 17.5196 90.7533 17.3422L93.6701 11.8537H93.7037C93.6388 13.0715 93.6388 13.6773 93.6388 14.1058V16.4385C93.6388 17.3246 93.5422 17.4389 92.6859 17.5393V17.9643H95.9601V17.5393C94.9243 17.4389 94.8645 17.3422 94.8645 16.4209V12.1999Z" fill="#9A888A"/>
<path id="Vector_38" d="M103.276 17.9644C102.678 17.9644 102.147 17.8659 101.665 17.0282C101.27 16.324 100.939 15.6471 100.715 15.1904L100.7 15.1586C100.392 14.5485 100.039 14.3997 99.3445 14.3997V16.4531C99.3445 17.2937 99.4237 17.439 100.392 17.5394V17.9644H97.0566V17.5394C98.0241 17.439 98.103 17.2937 98.103 16.4531V12.2625C98.103 11.4093 98.0397 11.3126 97.1061 11.2141V10.8014H100.296V11.2141C99.4237 11.3126 99.3445 11.4093 99.3445 12.2625V13.9087C99.8121 13.8925 100.164 13.8102 100.566 13.4301C100.835 13.1449 101.149 12.6569 101.432 12.2159C101.525 12.0712 101.615 11.9315 101.699 11.8057C102.003 11.3412 102.536 10.624 103.212 10.624C103.677 10.624 103.935 10.8695 103.935 11.178C103.935 11.4758 103.777 11.6746 103.355 11.6746H103.098C102.518 11.6746 102.177 12.137 101.764 12.7612C101.47 13.2185 101.101 13.6251 100.794 13.8585V13.9229C101.069 14.0073 101.539 14.2528 101.871 14.7459C102.087 15.0583 102.266 15.3679 102.586 15.9211L102.81 16.3075C103.355 17.2111 103.661 17.4892 104.317 17.5394V17.9644H103.276Z" fill="#9A888A"/>
<path id="Vector_39" fill-rule="evenodd" clip-rule="evenodd" d="M109.364 17.8496C109.546 18.0128 109.883 18.1597 110.126 18.1597L111.494 17.326L111.332 16.8991C111.172 16.9977 110.945 17.0949 110.752 17.0949C110.479 17.0949 110.191 16.8495 110.191 16.1087V13.0716C110.191 12.2 110.029 11.5383 109.464 11.0508C109.111 10.753 108.628 10.6042 108.142 10.6042C107.226 10.8211 106.194 11.4253 105.742 11.7552C105.436 11.9866 105.241 12.1661 105.241 12.4134C105.241 12.7866 105.651 13.1021 105.935 13.1021C106.161 13.1021 106.324 12.9909 106.401 12.7235C106.551 12.2326 106.678 11.8701 106.889 11.6567C107.047 11.4595 107.29 11.3412 107.597 11.3412C108.417 11.3412 108.951 12.0013 108.951 13.2022V13.4803C108.594 13.776 107.418 14.2207 106.449 14.549C105.568 14.8608 105.146 15.372 105.146 16.1587C105.146 17.1914 105.935 18.1597 107.082 18.1597C107.486 18.1597 108.098 17.7308 108.669 17.3306C108.776 17.256 108.881 17.1823 108.983 17.1126C109.062 17.4048 109.157 17.6361 109.364 17.8496ZM107.974 14.5075C108.324 14.3457 108.73 14.1577 108.951 14.0399V16.5839C108.641 16.8991 108.079 17.1772 107.664 17.1772C107.159 17.1772 106.514 16.7848 106.514 15.926C106.514 15.3197 106.869 15.0258 107.499 14.7301C107.616 14.6733 107.787 14.5941 107.974 14.5075Z" fill="#9A888A"/>
<path id="Vector_40" d="M60.1808 30.4324C60.0841 30.9757 59.7606 32.5212 59.6179 33.0306H51.8498V32.5701C53.3162 32.4569 53.4462 32.3206 53.4462 30.9757V24.4371C53.4462 22.9741 53.3162 22.9074 52.0585 22.793V22.3499H59.2485C59.2485 22.6742 59.2998 23.4881 59.3474 24.2415L59.3772 24.7168L58.9061 24.7828C58.7616 24.0912 58.6016 23.7309 58.3922 23.3863C58.1655 23.0243 57.7313 22.9074 56.5724 22.9074H55.3454C54.8458 22.9074 54.8159 22.9578 54.8159 23.4349V27.1823H56.3317C57.7946 27.1823 57.874 27.0477 58.0689 25.9482H58.5349V29.0845H58.0689C57.86 27.9206 57.7488 27.8221 56.3457 27.8221H54.8159V30.926C54.8159 31.6985 54.9128 32.0589 55.2014 32.2581C55.5088 32.4716 56.0696 32.4716 56.8766 32.4716C58.1007 32.4716 58.5524 32.3383 58.9061 31.9098C59.1805 31.5836 59.4879 31.028 59.7132 30.3699L60.1808 30.4324Z" fill="#9A888A"/>
<path id="Vector_41" d="M65.7104 32.0934C66.192 32.929 66.7247 33.0313 67.321 33.0313H68.3693V32.6041C67.7097 32.5504 67.4002 32.2764 66.8569 31.3692L66.622 30.9674C66.306 30.4261 66.1261 30.1179 65.9193 29.8074C65.582 29.3159 65.1122 29.0704 64.8416 28.986V28.9216C65.1456 28.6925 65.515 28.2781 65.807 27.8227C66.2254 27.1971 66.5632 26.7361 67.1415 26.7361H67.4002C67.8238 26.7361 67.9803 26.5424 67.9803 26.2432C67.9803 25.9291 67.7251 25.6855 67.2562 25.6855C66.5807 25.6855 66.048 26.4099 65.7419 26.8667C65.6488 27.0058 65.5489 27.1623 65.4456 27.324C65.1707 27.7548 64.8722 28.2224 64.6163 28.495C64.2102 28.8733 63.8588 28.954 63.3872 28.9702V27.3277C63.3872 26.4743 63.472 26.3773 64.3402 26.2772V25.8645H61.1528V26.2772C62.0864 26.3773 62.151 26.4743 62.151 27.3277V31.5162C62.151 32.3552 62.0702 32.5021 61.1048 32.6041V33.0313H64.4373V32.6041C63.472 32.5021 63.3872 32.3552 63.3872 31.5162V29.4633C64.0801 29.4633 64.4373 29.6116 64.7429 30.2196C64.9682 30.6806 65.3077 31.3692 65.7104 32.0934Z" fill="#9A888A"/>
<path id="Vector_42" fill-rule="evenodd" clip-rule="evenodd" d="M74.1676 33.2262C73.9304 33.2262 73.5888 33.0779 73.4149 32.9112C73.2041 32.7013 73.1054 32.47 73.028 32.1743C72.9238 32.2456 72.8165 32.3212 72.7078 32.3978C72.1399 32.7978 71.5319 33.2262 71.1235 33.2262C69.9807 33.2262 69.1911 32.2565 69.1911 31.2217C69.1911 30.4329 69.6098 29.9256 70.4976 29.6115C71.4629 29.2819 72.6393 28.8371 72.9928 28.5412V28.2652C72.9928 27.0659 72.4619 26.4098 71.6403 26.4098C71.3329 26.4098 71.0901 26.5247 70.9302 26.7197C70.7242 26.9312 70.5942 27.2935 70.4502 27.79C70.366 28.0518 70.2074 28.1632 69.9807 28.1632C69.6926 28.1632 69.2899 27.8531 69.2899 27.4746C69.2899 27.2309 69.4832 27.048 69.7893 26.8204C70.2394 26.4905 71.2697 25.8807 72.1876 25.6672C72.6711 25.6672 73.1562 25.816 73.5081 26.112C74.0758 26.6048 74.236 27.2617 74.236 28.1327V31.172C74.236 31.9103 74.5224 32.1593 74.7986 32.1593C74.994 32.1593 75.2172 32.0594 75.3808 31.9587L75.5373 32.389L74.1676 33.2262ZM72.063 29.55C71.8605 29.644 71.6727 29.7313 71.5458 29.7932C70.9162 30.0889 70.5627 30.3827 70.5627 30.9925C70.5627 31.846 71.2064 32.2402 71.7057 32.2402C72.1225 32.2402 72.6852 31.9587 72.9928 31.6486V29.1045C72.7826 29.2155 72.4016 29.3926 72.063 29.55Z" fill="#9A888A"/>
<path id="Vector_43" d="M81.3735 26.7986C81.516 27.0801 81.5989 27.4426 81.6971 27.9517L82.1332 27.905C82.1157 27.1971 82.0983 26.458 82.0983 25.8645H75.9456C75.9295 26.458 75.8961 27.1971 75.8153 27.905L76.2514 27.9517C76.3957 27.41 76.4908 27.0985 76.6369 26.8205C76.8143 26.4743 77.1043 26.3899 77.5878 26.3899H78.3614V31.4494C78.3614 32.3731 78.2807 32.5021 77.185 32.6041V33.0313H80.8075V32.6041C79.7174 32.5021 79.6329 32.3731 79.6329 31.4494V26.3899H80.3433C80.9075 26.3899 81.2102 26.5047 81.3735 26.7986Z" fill="#9A888A"/>
<path id="Vector_44" fill-rule="evenodd" clip-rule="evenodd" d="M88.8681 31.6486C87.8553 32.9283 86.7403 33.2262 86.2428 33.2262C84.2625 33.2262 83.0986 31.582 83.0986 29.7264C83.0986 28.6114 83.5029 27.5908 84.1659 26.8666C84.8239 26.1283 85.696 25.6672 86.5171 25.6672H86.533C87.8693 25.6672 88.9488 26.8829 88.9488 28.1485C88.9488 28.4768 88.8837 28.6114 88.5795 28.6739C88.325 28.7241 86.2923 28.8855 84.3579 28.9533C84.3737 31.1896 85.6481 32.1091 86.7737 32.1091C87.4367 32.1091 88.0327 31.846 88.6269 31.2847L88.8681 31.6486ZM86.1282 26.2765C85.404 26.2765 84.6811 26.9673 84.4386 28.2775C85.3386 28.2775 86.2428 28.2652 87.173 28.2329C87.465 28.2329 87.5617 28.1485 87.5617 27.9206C87.5791 27.0659 87.034 26.2765 86.1443 26.2765H86.1282Z" fill="#9A888A"/>
<path id="Vector_45" fill-rule="evenodd" clip-rule="evenodd" d="M94.3476 25.6667C94.1528 25.6667 93.8501 25.749 93.5599 25.9285L92.0756 26.7854V25.5051C91.3199 25.7994 90.416 26.0805 89.7389 26.1937V26.5896C90.7379 26.7186 90.8025 26.7549 90.8025 27.8215V35.248C90.8025 36.329 90.6606 36.4297 89.6264 36.5262V36.9709H93.4281V36.5262C92.1884 36.4097 92.0756 36.329 92.0756 35.0829V32.9278C92.285 33.0427 92.7071 33.2093 93.1927 33.2272C95.2831 32.8314 97.2017 31.2369 97.2017 28.7594C97.2017 27.1634 96.1381 25.6667 94.3476 25.6667ZM93.5936 32.4221C93.0293 32.4221 92.4296 32.159 92.0756 31.7987V27.3592C92.5119 27.0164 93.1696 26.6526 93.6881 26.6526C94.8491 26.6526 95.8479 27.6407 95.8479 29.3991C95.8479 31.2369 94.9471 32.4221 93.5936 32.4221Z" fill="#9A888A"/>
<path id="Vector_46" d="M105.965 26.2584C104.935 26.3604 104.857 26.4753 104.857 27.2625V31.4851C104.857 32.4029 104.917 32.5015 105.947 32.6035V33.0306H102.677V32.6035C103.533 32.5015 103.632 32.3887 103.632 31.4992V29.1665C103.632 28.7399 103.632 28.1322 103.693 26.9165H103.665L100.746 32.4029C100.649 32.5859 100.601 32.7469 100.601 32.9102V33.0306H98.1194V32.6035C99.1181 32.5015 99.183 32.3545 99.183 31.3681V27.4257C99.183 26.4753 99.1181 26.3604 98.1194 26.2584V25.8638H101.437V26.2584C100.457 26.3604 100.411 26.4576 100.411 27.411V29.2827C100.411 29.8444 100.411 30.6458 100.345 31.9098H100.379L103.355 26.3428C103.456 26.1774 103.484 26.061 103.484 25.9803V25.8638H105.965V26.2584Z" fill="#9A888A"/>
<path id="Vector_47" d="M111.559 32.6041V33.0313H114.814V32.6041C113.865 32.5021 113.784 32.4035 113.784 31.353V27.3942C113.784 26.458 113.865 26.3594 114.767 26.2772V25.8645H111.526V26.2772C112.463 26.3594 112.511 26.4906 112.511 27.3761V28.8858H109.386V27.3942C109.386 26.4906 109.465 26.3594 110.286 26.2772V25.8645H107.016V26.2772C108.066 26.3594 108.114 26.4743 108.114 27.3942V31.353C108.114 32.4035 108.044 32.5021 107.047 32.6041V33.0313H110.306V32.6041C109.465 32.5021 109.386 32.4212 109.386 31.353V29.513H112.511V31.353C112.511 32.3891 112.432 32.5021 111.559 32.6041Z" fill="#9A888A"/>
<path id="Vector_48" d="M123.761 26.2584C122.733 26.3604 122.648 26.4753 122.648 27.2625V31.4851C122.648 32.4029 122.713 32.5015 123.745 32.6035V33.0306H120.472V32.6035C121.325 32.5015 121.424 32.3887 121.424 31.4992V29.1665C121.424 28.7399 121.424 28.1322 121.489 26.9165H121.457L118.539 32.4029C118.442 32.5859 118.394 32.7469 118.394 32.9102V33.0306H115.913V32.6035C116.914 32.5015 116.979 32.3545 116.979 31.3681V27.4257C116.979 26.4753 116.914 26.3604 115.913 26.2584V25.8638H119.235V26.2584C118.25 26.3604 118.199 26.4576 118.199 27.411V29.2827C118.199 29.8444 118.199 30.6458 118.137 31.9098H118.169L121.15 26.3428C121.243 26.1774 121.278 26.061 121.278 25.9803V25.8638H123.761V26.2584Z" fill="#9A888A"/>
<path id="Vector_49" d="M129.353 32.6041V33.0313H132.604V32.6041C131.657 32.5021 131.575 32.4035 131.575 31.353V27.3942C131.575 26.458 131.657 26.3594 132.558 26.2772V25.8645H129.322V26.2772C130.251 26.3594 130.301 26.4906 130.301 27.3761V28.8858H127.176V27.3942C127.176 26.4906 127.257 26.3594 128.08 26.2772V25.8645H124.808V26.2772C125.857 26.3594 125.903 26.4743 125.903 27.3942V31.353C125.903 32.4035 125.838 32.5021 124.841 32.6041V33.0313H128.096V32.6041C127.257 32.5021 127.176 32.4212 127.176 31.353V29.513H130.301V31.353C130.301 32.3891 130.222 32.5021 129.353 32.6041Z" fill="#9A888A"/>
<path id="Vector_50" d="M139.647 31.5528C138.941 32.501 137.876 33.2273 136.928 33.2273C134.897 33.2273 133.689 31.5648 133.689 29.8063C133.689 28.5405 134.238 27.4431 135.318 26.6054C136.156 25.9478 137.122 25.6663 137.718 25.6663H137.734C138.393 25.6663 138.926 25.8813 139.184 26.111C139.393 26.2777 139.441 26.4246 139.441 26.6054C139.441 26.9516 139.087 27.312 138.912 27.312C138.813 27.312 138.734 27.262 138.604 27.1295C138.12 26.672 137.554 26.4585 136.978 26.4585C135.913 26.4585 134.994 27.3609 134.994 29.0838C134.994 31.3535 136.508 32.1102 137.426 32.1102C138.12 32.1102 138.635 31.911 139.378 31.2082L139.647 31.5528Z" fill="#9A888A"/>
<path id="Vector_51" d="M145.082 32.0934C145.566 32.929 146.097 33.0313 146.693 33.0313H147.737V32.6041C147.082 32.5504 146.776 32.2764 146.224 31.3692L145.977 30.9441C145.672 30.4172 145.497 30.1134 145.29 29.8074C144.952 29.3159 144.486 29.0704 144.211 28.986V28.9216C144.516 28.6925 144.891 28.2781 145.179 27.8227C145.594 27.1971 145.934 26.7361 146.517 26.7361H146.776C147.194 26.7361 147.354 26.5424 147.354 26.2432C147.354 25.9291 147.096 25.6855 146.63 25.6855C145.95 25.6855 145.42 26.4099 145.114 26.8667C145.03 26.9937 144.94 27.1352 144.846 27.282C144.564 27.724 144.251 28.2135 143.983 28.495C143.581 28.8733 143.231 28.954 142.76 28.9702V27.3277C142.76 26.4743 142.846 26.3773 143.712 26.2772V25.8645H140.523V26.2772C141.457 26.3773 141.52 26.4743 141.52 27.3277V31.5162C141.52 32.3552 141.441 32.5021 140.472 32.6041V33.0313H143.808V32.6041C142.846 32.5021 142.76 32.3552 142.76 31.5162V29.4633C143.454 29.4633 143.808 29.6116 144.115 30.2196C144.341 30.6806 144.682 31.3692 145.082 32.0934Z" fill="#9A888A"/>
<path id="Vector_52" fill-rule="evenodd" clip-rule="evenodd" d="M153.543 33.2262C153.301 33.2262 152.965 33.0779 152.789 32.9112C152.578 32.7013 152.481 32.47 152.4 32.1743C152.298 32.2442 152.193 32.3183 152.087 32.3934C151.517 32.795 150.905 33.2262 150.499 33.2262C149.354 33.2262 148.565 32.2565 148.565 31.2217C148.565 30.4329 148.984 29.9256 149.868 29.6115C150.835 29.2819 152.012 28.8371 152.369 28.5412V28.2652C152.369 27.0659 151.836 26.4098 151.016 26.4098C150.71 26.4098 150.464 26.5247 150.306 26.7197C150.095 26.9312 149.967 27.2935 149.822 27.79C149.74 28.0518 149.582 28.1632 149.354 28.1632C149.066 28.1632 148.664 27.8531 148.664 27.4746C148.664 27.2309 148.856 27.048 149.161 26.8204C149.613 26.4905 150.643 25.8807 151.562 25.6672C152.048 25.6672 152.527 25.816 152.884 26.112C153.448 26.6048 153.608 27.2617 153.608 28.1327V31.172C153.608 31.9103 153.898 32.1593 154.171 32.1593C154.363 32.1593 154.59 32.0594 154.748 31.9587L154.913 32.389L153.543 33.2262ZM151.447 29.5446C151.239 29.6408 151.045 29.7301 150.916 29.7932C150.29 30.0889 149.935 30.3827 149.935 30.9925C149.935 31.846 150.582 32.2402 151.08 32.2402C151.493 32.2402 152.061 31.9587 152.369 31.6486V29.1045C152.161 29.2142 151.784 29.3885 151.447 29.5446Z" fill="#9A888A"/>
<path id="Vector_53" fill-rule="evenodd" clip-rule="evenodd" d="M159.213 32.6035V33.0301H162.482V32.6035C161.534 32.5335 161.438 32.4221 161.438 31.3878V27.4756C161.438 26.4229 161.534 26.3604 162.452 26.276V25.8638H159.034C157.494 25.8638 156.38 26.4571 156.38 27.7713C156.38 28.7594 157.041 29.3991 158.296 29.6289V29.6593C157.413 29.8727 157.023 30.4644 156.718 31.0724C156.656 31.1918 156.599 31.3038 156.546 31.4081C156.351 31.7919 156.209 32.0722 156.057 32.2413C155.852 32.4974 155.516 32.5484 155.168 32.6013L155.153 32.6035V33.0301H156.328C156.892 33.0301 157.346 32.7469 157.701 31.9597C157.776 31.7983 157.847 31.6399 157.915 31.4872C158.109 31.0515 158.283 30.6625 158.473 30.3837C158.7 30.0539 159.069 29.8727 159.663 29.8727H160.196V31.3681C160.196 32.4221 160.113 32.5335 159.213 32.6035ZM159.379 26.3783C160.005 26.3783 160.196 26.4753 160.196 26.9016V29.3495H159.713C159.086 29.3495 158.663 29.2685 158.329 29.0196C157.96 28.7757 157.733 28.4116 157.733 27.8734C157.733 26.8818 158.362 26.3783 159.379 26.3783Z" fill="#9A888A"/>
</g>
<defs>
<clipPath id="clip0_1_2286">
<rect width="162" height="40" fill="white" transform="translate(0.482483 0.41626)"/>
</clipPath>
</defs>
</svg>
