<svg width="91" height="96" viewBox="0 0 91 96" fill="none" xmlns="http://www.w3.org/2000/svg">
<g id="Star-1.svg" clip-path="url(#clip0_1_1994)">
<path id="Vector" d="M70.5284 50.0081L70.8406 61.2948C70.9239 64.2799 72.1462 67.1199 74.2569 69.2323C76.3676 71.3448 79.2067 72.5694 82.1917 72.655L93.4876 72.9673L82.2009 73.2795C79.2158 73.3627 76.3758 74.5851 74.2633 76.6958C72.1509 78.8065 70.9263 81.6456 70.8406 84.6305L70.5284 95.9265L70.2162 84.6397C70.1329 81.6547 68.9106 78.8146 66.7999 76.7022C64.6892 74.5898 61.8501 73.3652 58.8651 73.2795L47.5692 72.9673L58.856 72.655C61.841 72.5718 64.681 71.3495 66.7935 69.2388C68.9059 67.128 70.1305 64.289 70.2162 61.304L70.5284 50.0081ZM46.6509 23.3754L35.3641 23.6877C32.3791 23.7709 29.539 24.9933 27.4266 27.104C25.3142 29.2147 24.0895 32.0537 24.0039 35.0387L23.6917 46.3346L23.3794 35.0479C23.2962 32.0628 22.0739 29.2228 19.9631 27.1104C17.8524 24.998 15.0134 23.7733 12.0284 23.6877L0.732483 23.3754L12.0192 23.0632C15.0043 22.98 17.8443 21.7576 19.9567 19.6469C22.0691 17.5362 23.2938 14.6972 23.3794 11.7122L23.6917 0.41626L24.0039 11.703C24.0871 14.688 25.3095 17.5281 27.4202 19.6405C29.5309 21.7529 32.37 22.9776 35.3549 23.0632L46.6509 23.3754Z" fill="#CAC8CA"/>
</g>
<defs>
<clipPath id="clip0_1_1994">
<rect width="90" height="95.5102" fill="white" transform="translate(0.732483 0.41626)"/>
</clipPath>
</defs>
</svg>
