<svg width="123" height="123" viewBox="0 0 123 123" fill="none" xmlns="http://www.w3.org/2000/svg">
<g id="Union-7.svg" clip-path="url(#clip0_1_1984)">
<path id="Vector" fill-rule="evenodd" clip-rule="evenodd" d="M62.6711 62.397C95.8112 62.3852 122.482 61.9498 122.482 61.4163C122.482 60.8906 96.631 60.4591 64.2049 60.4356C80.1983 44.4069 92.6141 31.5635 92.3512 31.3007C92.0845 31.0339 78.841 43.8459 62.4632 60.1963C62.4514 27.0719 62.016 0.41626 61.4825 0.41626C60.949 0.41626 60.5135 27.0876 60.5018 60.2276C44.1122 43.8616 30.8452 31.0339 30.5824 31.3007C30.3195 31.5635 42.7353 44.4069 58.7287 60.4356C26.3182 60.4591 0.482483 60.8906 0.482483 61.4163C0.482483 61.9498 27.1342 62.3852 60.2625 62.397C43.5395 79.1318 30.3117 92.7989 30.5824 93.0696C30.8491 93.3363 44.1122 80.5087 60.5018 64.1387C60.5253 96.5648 60.9568 122.416 61.4825 122.416C62.0081 122.416 62.4397 96.5844 62.4632 64.174C78.841 80.5244 92.0845 93.3363 92.3512 93.0696C92.6219 92.795 79.3941 79.1318 62.6711 62.397Z" fill="#CAC8CA"/>
</g>
<defs>
<clipPath id="clip0_1_1984">
<rect width="122" height="122" fill="white" transform="translate(0.482483 0.41626)"/>
</clipPath>
</defs>
</svg>
