<svg width="163" height="125" viewBox="0 0 163 125" fill="none" xmlns="http://www.w3.org/2000/svg">
<path d="M177.293 -107.577L177.894 -86.0598C178.002 -82.2023 179.582 -78.5323 182.31 -75.8029C185.038 -73.0735 188.707 -71.4916 192.564 -71.3819L214.082 -70.7887L192.564 -70.1881C188.707 -70.0804 185.037 -68.5004 182.307 -65.7723C179.578 -63.0443 177.996 -59.3751 177.886 -55.5177L177.293 -34.0001L176.693 -55.5177C176.585 -59.3752 175.005 -63.0452 172.277 -65.7746C169.549 -68.504 165.88 -70.0859 162.022 -70.1956L140.505 -70.7887L162.022 -71.3894C165.88 -71.4971 169.55 -73.0771 172.279 -75.8052C175.008 -78.5332 176.59 -82.2024 176.7 -86.0598L177.293 -107.577ZM125.489 41.8295L126.022 61.1473C126.117 64.614 127.536 67.9126 129.988 70.3648C132.44 72.817 135.739 74.2365 139.206 74.3312L158.524 74.8642L139.206 75.3973C135.739 75.492 132.44 76.9114 129.988 79.3637C127.536 81.8159 126.117 85.1145 126.022 88.5811L125.489 107.899L124.956 88.5811C124.861 85.1145 123.442 81.8159 120.989 79.3637C118.537 76.9114 115.239 75.492 111.772 75.3973L92.4541 74.8642L111.772 74.3312C115.239 74.2365 118.537 72.817 120.989 70.3648C123.442 67.9126 124.861 64.614 124.956 61.1473L125.489 41.8295Z" fill="#CAC8CA"/>
<path d="M301.151 -44.2184C307.885 -25.5463 298.898 -2.98507 278.462 18.48C258.056 39.915 226.395 60.0587 188.315 73.7981C150.235 87.5375 113.011 92.2375 83.6173 88.7763C54.1864 85.3002 32.864 73.678 26.1219 55.0059C19.3874 36.3262 28.3743 13.765 48.8108 -7.70002C69.2172 -29.1275 100.878 -49.2712 138.958 -63.0106C177.038 -76.75 214.262 -81.4575 243.655 -77.9888C273.086 -74.5202 294.409 -62.898 301.151 -44.2184Z" stroke="#CAC8CA" stroke-width="1.50158"/>
</svg>
