<svg width="188" height="326" viewBox="0 0 188 326" fill="none" xmlns="http://www.w3.org/2000/svg">
<path fill-rule="evenodd" clip-rule="evenodd" d="M24.19 20.9971C46.4861 -0.951123 84.8655 -3.07399 129.578 12.2418C147.928 18.5144 167.249 27.7015 186.787 39.5512C159.322 55.9344 131.461 77.3909 105.159 103.273C78.8567 129.155 56.9685 156.668 40.1535 183.87C28.6157 164.14 19.7284 144.687 13.7436 126.229C-0.840541 81.2768 1.89399 42.9333 24.178 20.9971H24.19ZM39.0021 185.717C-1.22434 117.389 -9.93167 51.8446 22.8348 19.6178C55.5772 -12.6089 120.978 -2.88209 188.67 38.4358C257.009 -1.79067 322.554 -10.498 354.781 22.2684C387.019 55.0109 377.281 120.412 335.963 188.104C376.189 256.443 384.885 321.988 352.13 354.214C319.388 386.441 253.987 376.714 186.295 335.396C117.956 375.623 52.4109 384.318 20.1842 351.564C-12.0425 318.821 -2.31575 253.42 39.0021 185.729V185.717ZM184.436 334.245C164.707 345.783 145.253 354.658 126.795 360.643C81.8431 375.227 43.4997 372.493 21.5634 350.209C-0.384786 327.901 -2.50765 289.521 12.8081 244.809C19.0808 226.459 28.2679 207.149 40.1175 187.6C56.5007 215.065 77.9572 242.926 103.839 269.228C129.721 295.53 157.235 317.43 184.436 334.233V334.245ZM186.319 333.13C158.986 316.339 131.269 294.355 105.207 267.885C79.1446 241.379 57.6161 213.326 41.2569 185.729C58.0479 158.407 80.0321 130.702 106.514 104.628C132.996 78.5662 161.061 57.0378 188.646 40.6786C215.991 57.4696 243.696 79.4538 269.758 105.924C295.82 132.429 317.361 160.482 333.72 188.08C316.917 215.401 294.933 243.118 268.451 269.18C241.969 295.242 213.916 316.783 186.319 333.142V333.13ZM188.178 334.269C207.728 346.119 227.037 355.306 245.387 361.59C290.099 376.894 328.479 374.771 350.775 352.835C373.083 330.887 375.805 292.544 361.221 247.592C355.225 229.133 346.349 209.68 334.823 189.951C318.008 217.152 296.108 244.677 269.818 270.547C243.504 296.441 215.643 317.886 188.178 334.269ZM334.859 186.209C346.697 166.671 355.884 147.349 362.169 128.999C377.473 84.2872 375.35 45.9077 353.414 23.6117C331.465 1.30367 293.122 -1.41887 248.17 13.1773C229.712 19.1501 210.258 28.0373 190.529 39.5632C217.73 56.3901 245.256 78.2784 271.126 104.568C297.02 130.882 318.464 158.743 334.847 186.209H334.859ZM187.482 95.6331L188.97 149.304C189.236 158.932 193.179 168.091 199.989 174.901C206.799 181.711 215.959 185.655 225.586 185.921L279.233 187.396L225.574 188.883C215.947 189.149 206.787 193.092 199.977 199.903C193.167 206.713 189.224 215.872 188.958 225.499L187.47 279.171L185.983 225.499C185.717 215.872 181.774 206.713 174.964 199.903C168.154 193.092 158.994 189.149 149.367 188.883L95.7317 187.396L149.391 185.921C159.018 185.655 168.178 181.711 174.988 174.901C181.798 168.091 185.741 158.932 186.007 149.304L187.494 95.6331H187.482Z" fill="#CAC8CA"/>
</svg>
